<svg xmlns="http://www.w3.org/2000/svg" viewBox="0 0 97.6 82.7"><defs><style>.cls-1{fill:#333;}</style></defs><g id="Livello_2" data-name="Livello 2"><g id="Livello_1-2" data-name="Livello 1"><path class="cls-1" d="M4.2,22.3H2.6A2.65,2.65,0,0,0,0,24.9V35.7a2.65,2.65,0,0,0,2.6,2.6H4.1a2.65,2.65,0,0,0,2.6-2.6V24.9A2.56,2.56,0,0,0,4.2,22.3Z"/><path class="cls-1" d="M95,24H93.5a2.65,2.65,0,0,0-2.6,2.6V37.4A2.65,2.65,0,0,0,93.5,40H95a2.65,2.65,0,0,0,2.6-2.6V26.6A2.58,2.58,0,0,0,95,24Z"/><path class="cls-1" d="M80.9,3.6C71.8.2,48.8,0,48.8,0S25.7.2,16.6,3.6s-7.7,10-7.7,10V68.9a7.7,7.7,0,0,0,7.7,7.7h.9v3.5a2.65,2.65,0,0,0,2.6,2.6H30.2a2.65,2.65,0,0,0,2.6-2.6V76.6h32v3.5a2.65,2.65,0,0,0,2.6,2.6H77.5a2.65,2.65,0,0,0,2.6-2.6V76.6H81a7.7,7.7,0,0,0,7.7-7.7V13.5C88.6,13.5,90,7,80.9,3.6Zm-40.1,3a1.11,1.11,0,0,1,1.1-1.1H55.7a1.11,1.11,0,0,1,1.1,1.1v3a1.11,1.11,0,0,1-1.1,1.1H41.9a1.11,1.11,0,0,1-1.1-1.1ZM30.2,60.9a2.26,2.26,0,0,1-2.3,2.3H19a2.26,2.26,0,0,1-2.3-2.3V56.1a2.14,2.14,0,0,1,.9-1.8,2.39,2.39,0,0,1,2-.4l8.9,2.4a2.34,2.34,0,0,1,1.7,2.2Zm-12-13.5A1.37,1.37,0,0,1,16.8,46V17.9a1.37,1.37,0,0,1,1.4-1.4H79.1a1.37,1.37,0,0,1,1.4,1.4V46a1.37,1.37,0,0,1-1.4,1.4ZM80.8,60.9a2.26,2.26,0,0,1-2.3,2.3H69.6a2.26,2.26,0,0,1-2.3-2.3V58.5A2.34,2.34,0,0,1,69,56.3l8.9-2.4a2.39,2.39,0,0,1,2,.4,2.14,2.14,0,0,1,.9,1.8Z"/></g></g></svg>