<svg xmlns="http://www.w3.org/2000/svg" viewBox="0 0 90 70"><g id="_90x70" data-name="90x70"><path d="M21.1185,49.8379a9.2635,9.2635,0,0,1,8.9894,7.3649H48.9532l14.1881-13.43L53.502,5.4324h-5.74a1.8414,1.8414,0,1,1,0-3.6824H54.91a1.7509,1.7509,0,0,1,1.7329,1.5163L68.4483,49.8379a9.2967,9.2967,0,0,1,9.6392,9.2061,9.2062,9.2062,0,1,1-13.2133-8.2313L64.116,47.78,51.011,60.3436a1.7934,1.7934,0,0,1-1.3.5416H30.1079a9.1923,9.1923,0,1,1-8.9894-11.0473ZM69.3147,53.52l1.3,5.09a1.8388,1.8388,0,1,1-3.5741.8665l-1.3-5.09A5.8044,5.8044,0,0,0,63.25,59.044,5.5778,5.5778,0,1,0,69.3147,53.52ZM21.1185,60.8852a1.842,1.842,0,0,1,0-3.6824h5.1987A5.5183,5.5183,0,0,0,15.5949,59.044a5.5706,5.5706,0,0,0,5.5236,5.6319,5.4612,5.4612,0,0,0,5.1987-3.7907Z"/></g></svg>