<svg xmlns="http://www.w3.org/2000/svg" viewBox="0 0 90.47 42.04"><defs><style>.cls-1{fill:#333;}</style></defs><g id="Livello_2" data-name="Livello 2"><g id="Livello_1-2" data-name="Livello 1"><path class="cls-1" d="M5.82,30.4a5.85,5.85,0,0,1,5.68,4.66H23.42l9-8.49L26.29,2.33H22.66a1.17,1.17,0,1,1,0-2.33h4.52a1.11,1.11,0,0,1,1.1,1L35.74,30.4A5.82,5.82,0,1,1,36,42a5.8,5.8,0,0,1-2.54-11L33,29.1,24.72,37a1.13,1.13,0,0,1-.82.35H11.5a5.81,5.81,0,1,1-5.68-7Zm30.47,2.33L37.11,36a1.16,1.16,0,0,1-2.26.55L34,33.28a3.65,3.65,0,0,0-1.57,2.94,3.53,3.53,0,1,0,3.83-3.49ZM5.82,37.39a1.17,1.17,0,0,1,0-2.33H9.11a3.56,3.56,0,1,0,0,2.33Z"/><path class="cls-1" d="M48.7,15H48a1.19,1.19,0,0,0-1.17,1.16V21A1.19,1.19,0,0,0,48,22.19h.67A1.19,1.19,0,0,0,49.82,21V16.19A1.15,1.15,0,0,0,48.7,15Z"/><path class="cls-1" d="M89.31,15.79h-.67A1.18,1.18,0,0,0,87.48,17v4.83A1.18,1.18,0,0,0,88.64,23h.67a1.18,1.18,0,0,0,1.16-1.17V17A1.15,1.15,0,0,0,89.31,15.79Z"/><path class="cls-1" d="M83,6.67C78.93,5.15,68.65,5.06,68.65,5.06s-10.33.09-14.4,1.61-3.45,4.47-3.45,4.47V35.87a3.45,3.45,0,0,0,3.45,3.44h.4v1.57A1.19,1.19,0,0,0,55.81,42h4.52a1.18,1.18,0,0,0,1.16-1.16V39.31H75.8v1.57A1.19,1.19,0,0,0,77,42h4.51a1.19,1.19,0,0,0,1.17-1.16V39.31h.4a3.44,3.44,0,0,0,3.44-3.44V11.09S87.07,8.19,83,6.67ZM65.07,8a.49.49,0,0,1,.49-.49h6.17a.5.5,0,0,1,.5.49V9.35a.5.5,0,0,1-.5.49H65.56a.49.49,0,0,1-.49-.49ZM60.33,32.29a1,1,0,0,1-1,1h-4a1,1,0,0,1-1-1V30.15a1,1,0,0,1,.41-.81,1.05,1.05,0,0,1,.89-.18l4,1.08a1,1,0,0,1,.76,1Zm-5.37-6a.61.61,0,0,1-.62-.63V13.06a.6.6,0,0,1,.62-.62H82.2a.6.6,0,0,1,.62.62V25.63a.61.61,0,0,1-.62.63Zm28,6a1,1,0,0,1-1,1H78a1,1,0,0,1-1-1V31.22a1,1,0,0,1,.76-1l4-1.08a1.08,1.08,0,0,1,.9.18,1,1,0,0,1,.4.81Z"/></g></g></svg>