<svg xmlns="http://www.w3.org/2000/svg" viewBox="0 0 90 70"><g id="_90x70" data-name="90x70"><path d="M27.8784,62.88a3.7737,3.7737,0,0,0,1.8145,4.9549,4.432,4.432,0,0,0,1.6051.349,3.7744,3.7744,0,0,0,3.42-2.1635L40.58,53.5986a18.3007,18.3007,0,0,0,1.326-4.3269c-.4187-.3489-.9073-.8375-1.326-1.2562-2.3728-2.303-4.8154-4.6758-5.1643-5.0247l-.14-.14-.7677,4.8154a10.1743,10.1743,0,0,1-.8374,2.7217Z"/><path d="M27.46,36.1515a3.4823,3.4823,0,0,0,1.4656.349,3.1081,3.1081,0,0,0,2.7217-1.6052l1.5354-2.7915A20.9442,20.9442,0,0,1,37.3,27.0093c-.2094,2.2332-.5583,4.8154-.6979,6.3507-.349,3.1405-1.0468,5.3737.977,7.3278.6979.6978,9.77,9.5609,9.77,9.5609a7.3319,7.3319,0,0,1,1.954,3.42L52.0948,65.323a3.7936,3.7936,0,0,0,3.629,2.8613,4.0843,4.0843,0,0,0,.9073-.14,3.7639,3.7639,0,0,0,2.7915-4.5362L56.5613,51.9236a14.54,14.54,0,0,0-3.9779-7.0485L47.6982,40.13l2.5124-11.9338a25.5707,25.5707,0,0,0,5.932,5.3737l3.21,2.0936a3.1261,3.1261,0,1,0,3.42-5.2341l-3.21-2.0936a19.7245,19.7245,0,0,1-4.6758-4.3269c-4.4665-5.7226-5.5831-6.4205-7.1184-6.49l-5.1643-.3489c-1.1167,0-2.2333.3489-4.6758,1.6749A25.9077,25.9077,0,0,0,27.669,29.1029l-1.5353,2.7916A3.205,3.205,0,0,0,27.46,36.1515Z"/><circle cx="46.1668" cy="8.7251" r="6.9088"/></g></svg>