<?xml version="1.0" encoding="UTF-8" standalone="no"?>
<svg
   xmlns:dc="http://purl.org/dc/elements/1.1/"
   xmlns:cc="http://creativecommons.org/ns#"
   xmlns:rdf="http://www.w3.org/1999/02/22-rdf-syntax-ns#"
   xmlns:svg="http://www.w3.org/2000/svg"
   xmlns="http://www.w3.org/2000/svg"
   xmlns:sodipodi="http://sodipodi.sourceforge.net/DTD/sodipodi-0.dtd"
   xmlns:inkscape="http://www.inkscape.org/namespaces/inkscape"
   height="100%"
   viewBox="0 0 512 512"
   width="100%"
   version="1.1"
   id="svg4"
   sodipodi:docname="classic-micromobility.svg"
   inkscape:version="0.92.3 (2405546, 2018-03-11)">
  <metadata
     id="metadata10">
    <rdf:RDF>
      <cc:Work
         rdf:about="">
        <dc:format>image/svg+xml</dc:format>
        <dc:type
           rdf:resource="http://purl.org/dc/dcmitype/StillImage" />
      </cc:Work>
    </rdf:RDF>
  </metadata>
  <defs
     id="defs8" />
  <sodipodi:namedview
     pagecolor="#ffffff"
     bordercolor="#666666"
     borderopacity="1"
     objecttolerance="10"
     gridtolerance="10"
     guidetolerance="10"
     inkscape:pageopacity="0"
     inkscape:pageshadow="2"
     inkscape:window-width="825"
     inkscape:window-height="783"
     id="namedview6"
     showgrid="false"
     inkscape:zoom="0.4609375"
     inkscape:cx="282.77125"
     inkscape:cy="73.762712"
     inkscape:window-x="322"
     inkscape:window-y="0"
     inkscape:window-maximized="0"
     inkscape:current-layer="svg4" />
  <path
     d="m464.027344 393.210938-47.425782-341.464844c-4.097656-29.5-29.648437-51.746094-59.429687-51.746094h-68.171875v40h68.171875c9.929687 0 18.441406 7.414062 19.808594 17.246094l36.148437 260.25c-52.128906 15.089844-91.835937 59.722656-99.703125 114.503906h-196.867187c-8.253906-23.277344-30.484375-40-56.558594-40-33.085938 0-60 26.914062-60 60s26.914062 60 60 60c26.074219 0 48.304688-16.722656 56.558594-40h235.441406v-20c0-43.472656 27.886719-80.550781 66.710938-94.296875l5.699218 41.042969c-19.234375 10.003906-32.410156 30.113281-32.410156 53.253906 0 33.085938 26.914062 60 60 60s60-26.914062 60-60c0-28.964844-20.632812-53.203125-47.972656-58.789062zm-404.027344 78.789062c-11.027344 0-20-8.972656-20-20s8.972656-20 20-20 20 8.972656 20 20-8.972656 20-20 20zm392 0c-11.027344 0-20-8.972656-20-20s8.972656-20 20-20 20 8.972656 20 20-8.972656 20-20 20zm0 0"
     id="path2" />
  <g
     id="g827"
     transform="matrix(1.1663603,0,0,1.1663603,-0.67200628,-0.311089)">
    <path
       style="stroke-width:23.9440937"
       id="Path_78"
       data-name="Path 78"
       d="M 167.05085,327.89275 A 163.01139,163.01139 0 1 1 330.06224,164.88136 163.01139,163.01139 0 0 1 167.05085,327.89275 Z m 0,-304.281543 A 141.27015,141.27015 0 1 0 308.321,164.88136 141.27015,141.27015 0 0 0 167.05085,23.611207 Z"
       inkscape:connector-curvature="0" />
    <path
       style="stroke-width:23.9440937"
       id="Path_79"
       data-name="Path 79"
       d="m 113.36819,203.57502 v 0 a 10.870619,10.870619 0 0 1 2.39441,-15.2045 l 40.32185,-29.02025 V 67.069737 a 10.870619,10.870619 0 0 1 10.99034,-10.87062 v 0 a 10.870619,10.870619 0 0 1 10.87062,10.87062 V 170.41245 l -49.34877,35.65275 a 10.870619,10.870619 0 0 1 -15.2045,-2.39441 z"
       inkscape:connector-curvature="0" />
  </g>
</svg>
