<svg xmlns="http://www.w3.org/2000/svg" viewBox="0 0 98.19 37.98"><defs><style>.cls-1{fill:#333;}</style></defs><g id="Livello_2" data-name="Livello 2"><g id="Livello_1-2" data-name="Livello 1"><path class="cls-1" d="M56.42,10H55.7a1.19,1.19,0,0,0-1.16,1.17V16a1.19,1.19,0,0,0,1.16,1.16h.68A1.19,1.19,0,0,0,57.54,16V11.14A1.15,1.15,0,0,0,56.42,10Z"/><path class="cls-1" d="M97,10.73h-.67a1.19,1.19,0,0,0-1.17,1.17v4.83a1.19,1.19,0,0,0,1.17,1.16H97a1.19,1.19,0,0,0,1.16-1.16V11.9A1.16,1.16,0,0,0,97,10.73Z"/><path class="cls-1" d="M90.72,1.61C86.65.09,76.37,0,76.37,0S66,.09,62,1.61s-3.45,4.47-3.45,4.47V30.81A3.45,3.45,0,0,0,62,34.26h.4v1.56A1.17,1.17,0,0,0,63.53,37h4.52a1.18,1.18,0,0,0,1.16-1.16V34.26H83.52v1.56A1.18,1.18,0,0,0,84.68,37H89.2a1.17,1.17,0,0,0,1.16-1.16V34.26h.41a3.45,3.45,0,0,0,3.44-3.45V6S94.79,3.13,90.72,1.61ZM72.79,3a.49.49,0,0,1,.49-.49h6.17a.49.49,0,0,1,.49.49V4.29a.5.5,0,0,1-.49.5H73.28a.5.5,0,0,1-.49-.5ZM68.05,27.24a1,1,0,0,1-1,1H63a1,1,0,0,1-1-1V25.09a1,1,0,0,1,.4-.81,1.11,1.11,0,0,1,.9-.18l4,1.08a1,1,0,0,1,.76,1Zm-5.37-6a.61.61,0,0,1-.62-.63V8a.61.61,0,0,1,.62-.63H89.92a.61.61,0,0,1,.62.63V20.57a.61.61,0,0,1-.62.63Zm28,6a1,1,0,0,1-1,1h-4a1,1,0,0,1-1-1V26.16a1,1,0,0,1,.76-1l4-1.08a1.09,1.09,0,0,1,.89.18,1,1,0,0,1,.41.81Z"/><path class="cls-1" d="M40,18.7c-.21,0-.41,0-.62,0L35.51,2.4a1.38,1.38,0,0,0-1-1L30.09.28,29.42,3l3.6.9L34.3,9.34l0,0L23.54,24.22a2.38,2.38,0,0,0-.39,0v0l-.38,0L17.65,11.44l4.39-1V8.23H9.37a3.85,3.85,0,0,0,3.86,3.85h1.71l5,12.53-1.35.17a9.64,9.64,0,1,0,.19,6.6l4.36.54v0a3.31,3.31,0,0,0,.55,0A3.86,3.86,0,0,0,27,26l8.47-11.79,1.18,5.05A9.62,9.62,0,1,0,40,18.7ZM9.64,35.23a6.89,6.89,0,1,1,6.1-10.1l-5.82.73a2.21,2.21,0,0,0,0,4.41L16,31A6.92,6.92,0,0,1,9.64,35.23Zm30.31,0A6.89,6.89,0,0,1,37.27,22l1.62,6.93,2.68-.63L40,21.45a6.89,6.89,0,0,1,0,13.78Z"/><polygon class="cls-1" points="46.29 12.63 48.5 3.27 38.02 3.27 40.23 12.63 46.29 12.63"/></g></g></svg>