<svg xmlns="http://www.w3.org/2000/svg" viewBox="0 0 79.52 85.23"><defs><style>.cls-1,.cls-2{fill:#333;}.cls-1{fill-rule:evenodd;}</style></defs><g id="Livello_2" data-name="Livello 2"><g id="Livello_1-2" data-name="Livello 1"><path class="cls-1" d="M21.45,52.43c1.41-3.09,2.73-6.26,4.49-9.79,1-1.67,2-3.17,4-3.35H59.63c1.93.18,3,1.68,4,3.35,1.77,3.53,3.09,6.7,4.5,9.79Zm13.93,12.7H54.07a2.07,2.07,0,0,1,0,4.14H35.38a2.07,2.07,0,0,1,0-4.14Zm-5.47-30.6c-3.17,0-5.11,1.15-7.76,4.85l-4.41,10H11C10,49.34,8,54.81,15.1,55l-2.38,5.73c.08,7.32.08,14.55.08,21.78a2.75,2.75,0,0,0,2.74,2.73h9.17a2.66,2.66,0,0,0,2.64-2.73v-6H62.09v6a2.75,2.75,0,0,0,2.74,2.73H74a2.66,2.66,0,0,0,2.64-2.73c0-7.23.09-14.46.09-21.78L74.35,55c7.14-.18,5.11-5.65,4.14-5.65h-6.7l-4.41-10c-2.64-3.7-4.58-4.85-7.75-4.85ZM66.77,61.25a4.42,4.42,0,0,0-4.41,4.41,4.47,4.47,0,0,0,4.41,4.4,4.41,4.41,0,0,0,4.41-4.4A4.37,4.37,0,0,0,66.77,61.25Zm-44,0a4.42,4.42,0,0,1,4.41,4.41,4.47,4.47,0,0,1-4.41,4.4,4.41,4.41,0,0,1-4.41-4.4A4.37,4.37,0,0,1,22.77,61.25Z"/><path class="cls-2" d="M16.42,0A16.42,16.42,0,1,0,32.83,16.42,16.42,16.42,0,0,0,16.42,0Zm2,16.42h0a1.48,1.48,0,0,1-.44,1l-4.22,4.22a1.49,1.49,0,0,1-2.11-2.11l3.79-3.78V10.45a1.49,1.49,0,1,1,3,0Z"/></g></g></svg>