<svg xmlns="http://www.w3.org/2000/svg" viewBox="0 0 96.02 51.31"><defs><style>.cls-1,.cls-2{fill:#333;}.cls-1{fill-rule:evenodd;}</style></defs><g id="Livello_2" data-name="Livello 2"><g id="Livello_1-2" data-name="Livello 1"><path class="cls-1" d="M12.82,31.35c.85-1.84,1.64-3.74,2.69-5.85.58-1,1.22-1.9,2.38-2H35.65c1.16.1,1.8,1,2.38,2,1,2.11,1.84,4,2.69,5.85Zm8.33,7.59H32.33a1.24,1.24,0,0,1,1.22,1.27,1.23,1.23,0,0,1-1.22,1.21H21.15a1.24,1.24,0,0,1,0-2.48ZM17.89,20.65c-1.9,0-3.06.68-4.64,2.9l-2.64,6h-4C6,29.51,4.81,32.78,9,32.88L7.6,36.31c.06,4.37.06,8.7.06,13A1.65,1.65,0,0,0,9.29,51h5.48a1.61,1.61,0,0,0,1.59-1.64V45.75H37.13v3.58A1.65,1.65,0,0,0,38.77,51h5.48a1.6,1.6,0,0,0,1.58-1.64c0-4.32.05-8.65.05-13l-1.42-3.43c4.27-.1,3.06-3.37,2.48-3.37h-4l-2.64-6c-1.58-2.22-2.74-2.9-4.64-2.9Zm22,16a2.64,2.64,0,0,0-2.64,2.64,2.68,2.68,0,0,0,2.64,2.64,2.65,2.65,0,0,0,2.63-2.64A2.61,2.61,0,0,0,39.93,36.62Zm-26.32,0a2.64,2.64,0,0,1,2.64,2.64,2.68,2.68,0,0,1-2.64,2.64A2.65,2.65,0,0,1,11,39.26,2.61,2.61,0,0,1,13.61,36.62Z"/><path class="cls-2" d="M9.82,0a9.82,9.82,0,1,0,9.81,9.82A9.81,9.81,0,0,0,9.82,0ZM11,9.82h0a1,1,0,0,1-.26.63L8.21,13A.89.89,0,0,1,7,11.71L9.21,9.45V6.25a.9.9,0,1,1,1.79,0Z"/><path class="cls-2" d="M54.25,24.3h-.72a1.18,1.18,0,0,0-1.16,1.16v4.83a1.17,1.17,0,0,0,1.16,1.16h.67a1.17,1.17,0,0,0,1.16-1.16V25.46A1.14,1.14,0,0,0,54.25,24.3Z"/><path class="cls-2" d="M94.85,25.06h-.67A1.19,1.19,0,0,0,93,26.22v4.83a1.18,1.18,0,0,0,1.16,1.16h.67A1.18,1.18,0,0,0,96,31.05V26.22A1.16,1.16,0,0,0,94.85,25.06Z"/><path class="cls-2" d="M88.55,15.94c-4.07-1.52-14.36-1.61-14.36-1.61s-10.33.09-14.4,1.61-3.44,4.47-3.44,4.47V45.14a3.44,3.44,0,0,0,3.44,3.44h.4v1.57a1.19,1.19,0,0,0,1.17,1.16h4.51A1.19,1.19,0,0,0,67,50.15V48.58H81.35v1.57a1.18,1.18,0,0,0,1.16,1.16H87a1.19,1.19,0,0,0,1.16-1.16V48.58h.4A3.44,3.44,0,0,0,92,45.14V20.36S92.62,17.46,88.55,15.94ZM70.61,17.28a.5.5,0,0,1,.5-.49h6.17a.49.49,0,0,1,.49.49v1.34a.49.49,0,0,1-.49.49H71.11a.5.5,0,0,1-.5-.49ZM65.87,41.56a1,1,0,0,1-1,1h-4a1,1,0,0,1-1-1V39.41a1,1,0,0,1,.4-.8,1.06,1.06,0,0,1,.89-.18l4,1.07a1.05,1.05,0,0,1,.76,1Zm-5.36-6a.61.61,0,0,1-.63-.62V22.33a.62.62,0,0,1,.63-.63H87.74a.62.62,0,0,1,.63.63V34.9a.61.61,0,0,1-.63.62Zm28,6a1,1,0,0,1-1,1h-4a1,1,0,0,1-1-1V40.49a1.07,1.07,0,0,1,.76-1l4-1.07a1.07,1.07,0,0,1,.9.18,1,1,0,0,1,.4.8Z"/></g></g></svg>