<?xml version="1.0" encoding="UTF-8" standalone="no"?>
<svg
   xmlns:dc="http://purl.org/dc/elements/1.1/"
   xmlns:cc="http://creativecommons.org/ns#"
   xmlns:rdf="http://www.w3.org/1999/02/22-rdf-syntax-ns#"
   xmlns:svg="http://www.w3.org/2000/svg"
   xmlns="http://www.w3.org/2000/svg"
   xmlns:sodipodi="http://sodipodi.sourceforge.net/DTD/sodipodi-0.dtd"
   xmlns:inkscape="http://www.inkscape.org/namespaces/inkscape"
   viewBox="0 0 75.54 75.91"
   version="1.1"
   id="svg10"
   sodipodi:docname="MicromobilitySharing.svg"
   inkscape:version="0.92.3 (2405546, 2018-03-11)">
  <metadata
     id="metadata14">
    <rdf:RDF>
      <cc:Work
         rdf:about="">
        <dc:format>image/svg+xml</dc:format>
        <dc:type
           rdf:resource="http://purl.org/dc/dcmitype/StillImage" />
      </cc:Work>
    </rdf:RDF>
  </metadata>
  <sodipodi:namedview
     pagecolor="#ffffff"
     bordercolor="#666666"
     borderopacity="1"
     objecttolerance="10"
     gridtolerance="10"
     guidetolerance="10"
     inkscape:pageopacity="0"
     inkscape:pageshadow="2"
     inkscape:window-width="1042"
     inkscape:window-height="735"
     id="namedview12"
     showgrid="false"
     inkscape:zoom="3.1089447"
     inkscape:cx="-10.477883"
     inkscape:cy="37.955002"
     inkscape:window-x="0"
     inkscape:window-y="0"
     inkscape:window-maximized="0"
     inkscape:current-layer="svg10" />
  <defs
     id="defs4">
    <style
       id="style2">.cls-1{fill:#333;}</style>
  </defs>
  <g
     id="Livello_2"
     data-name="Livello 2">
    <g
       id="Livello_1-2"
       data-name="Livello 1">
      <path
         class="cls-1"
         d="M10.51,54.89A10.58,10.58,0,0,1,20.77,63.3H42.28L58.48,48,47.47,4.2H40.92a2.1,2.1,0,1,1,0-4.2h8.16a2,2,0,0,1,2,1.73L64.54,54.89a10.61,10.61,0,0,1,11,10.51A10.51,10.51,0,1,1,60.46,56l-.87-3.46-15,14.34a2,2,0,0,1-1.48.62H20.77A10.49,10.49,0,1,1,10.51,54.89Zm55,4.21L67,64.91a2.1,2.1,0,1,1-4.08,1l-1.49-5.82A6.64,6.64,0,0,0,58.6,65.4a6.37,6.37,0,1,0,6.92-6.3Zm-55,8.4c-2.72,0-2.72-4.2,0-4.2h5.93A6.3,6.3,0,0,0,4.2,65.4a6.36,6.36,0,0,0,6.31,6.43,6.22,6.22,0,0,0,5.93-4.33Z"
         id="path6" />
    </g>
  </g>
  <path
     inkscape:connector-curvature="0"
     class="cls-2"
     d="M 16.43,3.0450673e-6 A 16.42,16.42 0 1 0 32.84,16.420003 16.42,16.42 0 0 0 16.43,3.0450673e-6 Z M 18.43,16.420003 v 0 a 1.48,1.48 0 0 1 -0.44,1 l -4.22,4.22 a 1.4919953,1.4919953 0 0 1 -2.11,-2.11 l 3.79,-3.78 v -5.3 a 1.5,1.5 0 1 1 3,0 z"
     id="path8" />
</svg>
