<svg xmlns="http://www.w3.org/2000/svg" viewBox="0 0 75.54 75.91"><defs><style>.cls-1{fill:#333;}</style></defs><g id="Livello_2" data-name="Livello 2"><g id="Livello_1-2" data-name="Livello 1"><path class="cls-1" d="M10.51,54.89A10.58,10.58,0,0,1,20.77,63.3H42.28L58.48,48,47.47,4.2H40.92a2.1,2.1,0,1,1,0-4.2h8.16a2,2,0,0,1,2,1.73L64.54,54.89a10.61,10.61,0,0,1,11,10.51A10.51,10.51,0,1,1,60.46,56l-.87-3.46-15,14.34a2,2,0,0,1-1.48.62H20.77A10.49,10.49,0,1,1,10.51,54.89Zm55,4.21L67,64.91a2.1,2.1,0,1,1-4.08,1l-1.49-5.82A6.64,6.64,0,0,0,58.6,65.4a6.37,6.37,0,1,0,6.92-6.3Zm-55,8.4c-2.72,0-2.72-4.2,0-4.2h5.93A6.3,6.3,0,0,0,4.2,65.4a6.36,6.36,0,0,0,6.31,6.43,6.22,6.22,0,0,0,5.93-4.33Z"/></g></g></svg>