<svg xmlns="http://www.w3.org/2000/svg" viewBox="0 0 45.52 57.12"><defs><style>.cls-1{fill:#333;}</style></defs><g id="Livello_2" data-name="Livello 2"><g id="Livello_1-2" data-name="Livello 1"><path class="cls-1" d="M25.76,0a23.81,23.81,0,0,1,9.12,1.56A17,17,0,0,1,41,5.68a15.87,15.87,0,0,1,3.44,5.84,21.82,21.82,0,0,1,0,13.56A15.87,15.87,0,0,1,41,31a17,17,0,0,1-6.12,4.12,23.81,23.81,0,0,1-9.12,1.56H12.56V57.12H0V0ZM22.32,26.88a26.67,26.67,0,0,0,4.16-.32A9.68,9.68,0,0,0,30,25.32a6.73,6.73,0,0,0,2.44-2.6,9.19,9.19,0,0,0,.92-4.4,9.19,9.19,0,0,0-.92-4.4A6.73,6.73,0,0,0,30,11.32a9.68,9.68,0,0,0-3.52-1.24,26.67,26.67,0,0,0-4.16-.32H12.56V26.88Z"/></g></g></svg>