<svg xmlns="http://www.w3.org/2000/svg" viewBox="0 0 88.78 67.5"><defs><style>.cls-1{fill:#333;}</style></defs><g id="Livello_2" data-name="Livello 2"><g id="Livello_1-2" data-name="Livello 1"><path class="cls-1" d="M71.52,33c-.38,0-.75,0-1.12.06L63.56,3.8A2.48,2.48,0,0,0,61.76,2l-7.9-2L52.67,4.79l6.43,1.6,2.3,9.83-.09-.06L42.13,42.85c-.24,0-.47,0-.7.06v-.07l-.67.08L31.59,20l7.87-1.82V14.23H16.77a6.9,6.9,0,0,0,6.9,6.9h3.07l9,22.42-2.42.3a17.26,17.26,0,1,0,.35,11.82l7.79,1v-.08a7.93,7.93,0,0,0,1,.08,6.9,6.9,0,0,0,5.87-10.53L63.46,25l2.11,9a17.21,17.21,0,1,0,6-1.08ZM17.26,62.56A12.33,12.33,0,1,1,28.17,44.49l-10.41,1.3a3.95,3.95,0,0,0,0,7.9L28.61,55A12.32,12.32,0,0,1,17.26,62.56Zm54.26,0A12.33,12.33,0,0,1,66.7,38.88l2.91,12.41,4.8-1.13L71.54,37.9a12.33,12.33,0,0,1,0,24.66Z"/><polygon class="cls-1" points="82.86 22.12 86.81 5.35 68.06 5.35 72.01 22.12 82.86 22.12"/></g></g></svg>