<svg xmlns="http://www.w3.org/2000/svg" viewBox="0 0 80.75 36.98"><defs><style>.cls-1{fill:#333;}</style></defs><g id="Livello_2" data-name="Livello 2"><g id="Livello_1-2" data-name="Livello 1"><path class="cls-1" d="M16.5.38a15.36,15.36,0,0,1,5.84,1A11.09,11.09,0,0,1,26.26,4a10.14,10.14,0,0,1,2.2,3.74,14,14,0,0,1,0,8.69,10.06,10.06,0,0,1-2.2,3.76,10.83,10.83,0,0,1-3.92,2.64,15.17,15.17,0,0,1-5.84,1H8V37H0V.38ZM14.3,17.6A16.38,16.38,0,0,0,17,17.39a6.14,6.14,0,0,0,2.25-.79,4.41,4.41,0,0,0,1.57-1.66,5.9,5.9,0,0,0,.59-2.82,5.9,5.9,0,0,0-.59-2.82,4.44,4.44,0,0,0-1.57-1.67A6.32,6.32,0,0,0,17,6.84a16.4,16.4,0,0,0-2.66-.2H8v11Z"/><path class="cls-1" d="M39,10h-.72a1.19,1.19,0,0,0-1.16,1.17V16a1.19,1.19,0,0,0,1.16,1.16h.67A1.19,1.19,0,0,0,40.1,16V11.14A1.16,1.16,0,0,0,39,10Z"/><path class="cls-1" d="M79.58,10.73h-.67a1.19,1.19,0,0,0-1.16,1.17v4.83a1.19,1.19,0,0,0,1.16,1.16h.67a1.19,1.19,0,0,0,1.17-1.16V11.9A1.16,1.16,0,0,0,79.58,10.73Z"/><path class="cls-1" d="M73.28,1.61C69.21.09,58.92,0,58.92,0S48.59.09,44.52,1.61s-3.44,4.47-3.44,4.47V30.81a3.45,3.45,0,0,0,3.44,3.45h.41v1.56A1.17,1.17,0,0,0,46.09,37h4.52a1.18,1.18,0,0,0,1.16-1.16V34.26H66.08v1.56A1.18,1.18,0,0,0,67.24,37h4.52a1.18,1.18,0,0,0,1.16-1.16V34.26h.4a3.45,3.45,0,0,0,3.45-3.45V6S77.35,3.13,73.28,1.61ZM55.35,3a.49.49,0,0,1,.49-.49H62A.49.49,0,0,1,62.5,3V4.29a.5.5,0,0,1-.49.5H55.84a.5.5,0,0,1-.49-.5ZM50.61,27.24a1,1,0,0,1-1,1h-4a1,1,0,0,1-1-1V25.09a1,1,0,0,1,.4-.81,1.11,1.11,0,0,1,.9-.18l4,1.08a1,1,0,0,1,.76,1Zm-5.37-6a.62.62,0,0,1-.63-.63V8a.62.62,0,0,1,.63-.63H72.47A.62.62,0,0,1,73.1,8V20.57a.62.62,0,0,1-.63.63Zm28,6a1,1,0,0,1-1,1h-4a1,1,0,0,1-1-1V26.16a1,1,0,0,1,.76-1l4-1.08a1.1,1.1,0,0,1,.89.18,1,1,0,0,1,.4.81Z"/></g></g></svg>