<svg xmlns="http://www.w3.org/2000/svg" viewBox="0 0 90 70"><g id="_90x70" data-name="90x70"><path d="M15.3376,46.7339a1.3346,1.3346,0,0,1-.4572.084,1.3587,1.3587,0,0,1-1.3029-.9431A32.8867,32.8867,0,0,1,11.75,35,33.26,33.26,0,0,1,22.9934,10.0622H20.0621a1.3854,1.3854,0,0,1,0-2.7707h6.9271a1.3863,1.3863,0,0,1,1.0716.507c.0257.031.0426.0675.0653.1007l.013.0155c.0086.0122.0133.0255.0213.0377a1.3561,1.3561,0,0,1,.0838.1483,1.3711,1.3711,0,0,1,.0587,1.0727L26.9621,15.876A1.3848,1.3848,0,0,1,25.6049,16.99a1.3572,1.3572,0,0,1-.2728-.0277,1.3855,1.3855,0,0,1-1.0865-1.6306l.6471-3.2356a30.55,30.55,0,0,0-8.71,32.8791A1.3806,1.3806,0,0,1,15.3376,46.7339Zm3.0064,3.0618a1.4089,1.4089,0,0,0-1.87-.5258,1.3287,1.3287,0,0,0-.6656.83,1.3914,1.3914,0,0,0,.1243,1.0538,1.3606,1.3606,0,0,0,1.2054.7062,1.4548,1.4548,0,0,0,.6795-.166,1.4025,1.4025,0,0,0,.54-1.8852Zm37.74,15.6835H45A30.3556,30.3556,0,0,1,21.323,54.1871a1.4416,1.4416,0,0,0-1.9538-.206,1.3293,1.3293,0,0,0-.499.941,1.4051,1.4051,0,0,0,.2908,1.0106A33.1387,33.1387,0,0,0,44.9863,68.25H56.0837a1.3854,1.3854,0,0,0,0-2.7708Zm5.5414-15.9325a9.6949,9.6949,0,0,1-3.8608-18.5893l-1.23-4.5087L53.6455,27.56l-4.06,9.9605C48.4907,40,46.9944,41.22,45,41.2344H37.962A9.7166,9.7166,0,1,1,34.1668,32.09L37.74,28.5165l-.7146-2.5217H35.3017a1.3854,1.3854,0,0,1,0-2.7707h4.1564a1.3818,1.3818,0,0,1,.4259,2.6976l.3667,1.293,11.9807-2.0789L55.77,23.77l-.968-3.2268-2.9172-.09a1.3862,1.3862,0,0,1,.0407-2.7718h.0432l3.9156.1207c.02.001.039.0066.0595.0077a1.1664,1.1664,0,0,1,.1259.0178,1.2777,1.2777,0,0,1,.1456.03c.0373.01.073.0244.1093.0377.0476.0176.0952.0365.1406.0586.0346.0177.0672.0387.1.0587.0415.0255.0833.052.1217.0808.0339.0265.0645.0554.0953.0841.0332.031.0663.062.0965.0963a1.1924,1.1924,0,0,1,.08.103c.0274.0376.0539.0753.0777.1151.0208.0354.038.073.0557.1107a1.3027,1.3027,0,0,1,.0595.1439c.0049.0155.0135.0276.018.0431l1.6258,5.422L58.8,24.23l.0058.0155,1.6328,5.9854a9.6944,9.6944,0,1,1,1.1869,19.3155ZM35.1622,41.2344H28.3749a1.3534,1.3534,0,0,1-1.2744-.859,1.3869,1.3869,0,0,1,.2906-1.51l4.7948-4.7944a6.9228,6.9228,0,1,0,2.9763,7.1632Zm0-2.7707A6.8828,6.8828,0,0,0,34.1477,36.03l-2.4336,2.4342Zm5.3965,0-1.953-6.8931-2.4779,2.4786a9.6244,9.6244,0,0,1,1.8342,4.4145ZM50.362,28.2663,41.0112,29.898l2.4267,8.5657H45.042c.7469,0,1.3012-.5546,2.0077-2.0645Zm18.19,11.5822a6.9349,6.9349,0,0,0-6.9274-6.9263c-.1508,0-.2988.0133-.4469.0222l1.7836,6.54a1.3854,1.3854,0,1,1-2.6733.7284l-1.7836-6.54a6.9239,6.9239,0,1,0,10.0476,6.1758Zm1.3851,20.0893H66.9945A33.251,33.251,0,0,0,45,1.75H33.9166a1.3854,1.3854,0,1,0,0,2.7708H45a30.4773,30.4773,0,0,1,20.3469,53.17l.3928-1.5741a1.3847,1.3847,0,1,0-2.6869-.6708l-1.3276,5.31a1.4725,1.4725,0,0,0,.0258,1.1413c.0063.0133.0144.0255.0213.0387a1.6066,1.6066,0,0,0,.08.1483c.0094.0134.0222.0222.0322.0355.0127.0177.02.0387.0339.0553a1.3825,1.3825,0,0,0,1.0919.5336h6.9273a1.3854,1.3854,0,1,0,0-2.7707Z"/></g></svg>