<svg xmlns="http://www.w3.org/2000/svg" viewBox="0 0 90 70"><g id="_90x70" data-name="90x70"><path d="M6.2681,41.4709a.736.736,0,0,1-.2522.0463.7492.7492,0,0,1-.7184-.52A18.1366,18.1366,0,0,1,4.2894,35,18.3415,18.3415,0,0,1,10.49,21.2476H8.8735a.764.764,0,0,1,0-1.528h3.82a.7642.7642,0,0,1,.5909.28c.0142.0171.0236.0372.0361.0555l.0071.0086.0118.0207a.7649.7649,0,0,1,.0462.0818.7562.7562,0,0,1,.0324.5916l-.7394,3.6963a.7637.7637,0,0,1-.7485.6141.7549.7549,0,0,1-.15-.0152.7641.7641,0,0,1-.5991-.8992l.3568-1.7844A16.8472,16.8472,0,0,0,6.7343,40.5008.7615.7615,0,0,1,6.2681,41.4709Zm1.658,1.6885a.7771.7771,0,0,0-1.0312-.29.7328.7328,0,0,0-.3671.4579.7673.7673,0,0,0,.0686.5811.75.75,0,0,0,.6647.3895.8018.8018,0,0,0,.3747-.0915.7735.7735,0,0,0,.2976-1.04Zm20.8122,8.649H22.6259A16.74,16.74,0,0,1,9.5688,45.5811a.7949.7949,0,0,0-1.0774-.1136.7331.7331,0,0,0-.2752.5189.7748.7748,0,0,0,.16.5574,18.2752,18.2752,0,0,0,14.2419,6.7926h6.12a.764.764,0,0,0,0-1.528Zm3.056-8.7863a5.3465,5.3465,0,0,1-2.1291-10.2515l-.6784-2.4864-1.593.6129L25.1546,36.39c-.6036,1.3674-1.4287,2.04-2.5287,2.0481H18.7448a5.3585,5.3585,0,1,1-2.093-5.043l1.9706-1.9706-.3941-1.3906h-.9506a.764.764,0,0,1,0-1.528H19.57a.7621.7621,0,0,1,.2349,1.4877l.2022.7131,6.607-1.1465,1.9515-.7533-.5338-1.7795-1.6088-.0495a.7644.7644,0,0,1,.0225-1.5285h.0238l2.1593.0665c.0113.0006.0215.0037.0329.0043a.64.64,0,0,1,.0694.01.7053.7053,0,0,1,.08.0164c.0206.0055.04.0135.06.0208.0262.01.0525.02.0775.0323.0191.01.0371.0214.0551.0324.0228.014.0459.0287.0671.0445.0187.0147.0356.0306.0525.0465a.7416.7416,0,0,1,.0533.0531.6673.6673,0,0,1,.0443.0567c.015.0208.03.0416.0428.0635.0115.02.0209.04.0307.0611a.6934.6934,0,0,1,.0328.0793c.0028.0086.0075.0153.01.0238l.8967,2.99.0021.0105.0032.0085.9,3.3007a5.3462,5.3462,0,1,1,.6546,10.652Zm-14.5935-4.584h-3.743a.7464.7464,0,0,1-.7028-.4737.765.765,0,0,1,.16-.8327l2.6442-2.6439a3.8177,3.8177,0,1,0,1.6414,3.95Zm0-1.528a3.7958,3.7958,0,0,0-.5595-1.3424L15.2992,36.91Zm2.976,0L19.1,33.1088l-1.3666,1.3668A5.3088,5.3088,0,0,1,18.7448,36.91Zm5.4062-5.6235-5.1567.9L21.7646,36.91h.8846c.4119,0,.7175-.3058,1.1072-1.1385Zm10.0315,6.3872a3.8243,3.8243,0,0,0-3.82-3.82c-.0832,0-.1648.0073-.2465.0122l.9836,3.6066a.764.764,0,1,1-1.4743.4016l-.9835-3.6065a3.8183,3.8183,0,1,0,5.5409,3.4057Zm.7639,11.0786H34.7553A18.3369,18.3369,0,0,0,22.6259,16.6636H16.5138a.764.764,0,1,0,0,1.528h6.1121A16.8073,16.8073,0,0,1,33.8466,47.5132l.2166-.8681a.7636.7636,0,1,0-1.4817-.37l-.7321,2.9284a.76.76,0,0,0-.03.5054.7454.7454,0,0,0,.0438.1239l.0117.0214a.8743.8743,0,0,0,.0443.0818c.0052.0074.0122.0122.0177.0195.007.01.0113.0214.0187.0306a.7625.7625,0,0,0,.6021.2942h3.82a.764.764,0,1,0,0-1.528Z"/><path d="M46.5088,27.0043h-.6716a1.1112,1.1112,0,0,0-1.0913,1.0913v4.533A1.1112,1.1112,0,0,0,45.8372,33.72h.63a1.1112,1.1112,0,0,0,1.0913-1.0913v-4.533A1.0753,1.0753,0,0,0,46.5088,27.0043Z"/><path d="M84.6193,27.7179h-.63a1.1111,1.1111,0,0,0-1.0912,1.0912v4.533A1.1112,1.1112,0,0,0,83.99,34.4334h.63a1.1112,1.1112,0,0,0,1.0913-1.0913v-4.533A1.0837,1.0837,0,0,0,84.6193,27.7179Z"/><path d="M78.7013,19.1556c-3.82-1.4271-13.473-1.511-13.473-1.511s-9.6956.0839-13.515,1.511-3.2318,4.1972-3.2318,4.1972V46.5633a3.2331,3.2331,0,0,0,3.2318,3.2318h.3777v1.469a1.1112,1.1112,0,0,0,1.0913,1.0913h4.2392a1.1112,1.1112,0,0,0,1.0913-1.0913v-1.469h13.431v1.469a1.1112,1.1112,0,0,0,1.0913,1.0913h4.2391a1.1112,1.1112,0,0,0,1.0913-1.0913v-1.469h.3777a3.2332,3.2332,0,0,0,3.2319-3.2318V23.3108C81.9331,23.3108,82.5207,20.5826,78.7013,19.1556ZM61.8705,20.4147a.4658.4658,0,0,1,.4617-.4616h5.7921a.4657.4657,0,0,1,.4617.4616v1.2592a.4658.4658,0,0,1-.4617.4617H62.3322a.4658.4658,0,0,1-.4617-.4617Zm-4.449,22.7908a.95.95,0,0,1-.9654.9654H52.7206a.95.95,0,0,1-.9653-.9654V41.1909a.8975.8975,0,0,1,.3777-.7555,1.005,1.005,0,0,1,.8395-.1679l3.7355,1.0073a.9828.9828,0,0,1,.7135.9234Zm-5.0367-5.6662a.5738.5738,0,0,1-.5876-.5876V25.1576a.5738.5738,0,0,1,.5876-.5876h25.561a.5737.5737,0,0,1,.5876.5876V36.9517a.5737.5737,0,0,1-.5876.5876Zm26.2745,5.6662a.95.95,0,0,1-.9654.9654H73.9584a.95.95,0,0,1-.9653-.9654V42.1982a.9828.9828,0,0,1,.7135-.9234l3.7355-1.0073a1.0048,1.0048,0,0,1,.8394.1679.8974.8974,0,0,1,.3778.7555Z"/></g></svg>