<svg xmlns="http://www.w3.org/2000/svg" viewBox="0 0 90 70"><g id="_90x70" data-name="90x70"><path d="M69.9127,58.8751a14.5279,14.5279,0,0,1-5.7854-27.8562l-1.8434-6.7563L57.9552,25.928,51.8707,40.8539C50.2307,44.57,47.9884,46.3976,45,46.4192H34.4533a14.5607,14.5607,0,1,1-5.6872-13.7034l5.3547-5.3546L33.05,23.5824H30.4669a2.076,2.076,0,0,1,0-4.1519h6.2284a2.0707,2.0707,0,0,1,.6382,4.0425l.5494,1.9375,17.9532-3.1153,5.3028-2.0469-1.4506-4.8354-4.3714-.1344a2.0773,2.0773,0,0,1,.061-4.1536h.0647l5.8676.1808c.0306.0016.0584.01.0892.0116a1.7867,1.7867,0,0,1,.1886.0266,1.94,1.94,0,0,1,.2182.0447c.056.015.1094.0366.1638.0565.0713.0264.1427.0547.2106.0878.0519.0266.1008.0581.15.088.0621.0381.1247.0779.1824.121.0507.04.0966.083.1427.1262.05.0464.0994.0929.1447.1442a1.82,1.82,0,0,1,.12.1543c.041.0564.0808.1128.1165.1725.0311.0531.0568.1094.0834.1659a1.953,1.953,0,0,1,.0892.2157c.0074.0232.02.0414.0269.0646L65.6729,20.91c.0028.0083.0028.0183.0058.0283a.1968.1968,0,0,1,.0086.0232l2.4467,8.9691a14.5272,14.5272,0,1,1,1.7787,28.9444ZM30.2578,46.4192H20.0869a2.028,2.028,0,0,1-1.91-1.2873,2.0788,2.0788,0,0,1,.4354-2.2625l7.1851-7.1843a10.3738,10.3738,0,1,0,4.46,10.7341Zm0-4.152a10.315,10.315,0,0,0-1.52-3.6477l-3.6469,3.6477Zm8.0867,0L35.4179,31.9379,31.7047,35.652a14.4221,14.4221,0,0,1,2.7486,6.6152Zm14.69-15.2809L39.0226,29.4315l3.6365,12.8357h2.4036c1.1192,0,1.95-.8311,3.0086-3.0936Zm27.2587,17.356A10.392,10.392,0,0,0,69.9127,33.9632c-.2259,0-.4478.02-.67.0333l2.6727,9.8a2.076,2.076,0,1,1-4.006,1.0914l-2.6727-9.8a10.3756,10.3756,0,1,0,15.0565,9.2544Z"/></g></svg>