<svg xmlns="http://www.w3.org/2000/svg" viewBox="0 0 90 70"><g id="_90x70" data-name="90x70"><path d="M49.9771,27.0043h-.6715a1.1112,1.1112,0,0,0-1.0913,1.0913v4.533A1.1112,1.1112,0,0,0,49.3056,33.72h.63a1.1112,1.1112,0,0,0,1.0913-1.0913v-4.533A1.0753,1.0753,0,0,0,49.9771,27.0043Z"/><path d="M88.0877,27.7179h-.63a1.1112,1.1112,0,0,0-1.0913,1.0912v4.533a1.1112,1.1112,0,0,0,1.0913,1.0913h.63a1.1112,1.1112,0,0,0,1.0912-1.0913v-4.533A1.0836,1.0836,0,0,0,88.0877,27.7179Z"/><path d="M82.17,19.1556c-3.8194-1.4271-13.473-1.511-13.473-1.511s-9.6955.0839-13.515,1.511S51.95,23.3528,51.95,23.3528V46.5633a3.2331,3.2331,0,0,0,3.2318,3.2318h.3778v1.469a1.1112,1.1112,0,0,0,1.0913,1.0913H60.89a1.1112,1.1112,0,0,0,1.0913-1.0913v-1.469h13.431v1.469a1.1112,1.1112,0,0,0,1.0913,1.0913h4.2392a1.1112,1.1112,0,0,0,1.0912-1.0913v-1.469h.3778a3.2331,3.2331,0,0,0,3.2318-3.2318V23.3108C85.4015,23.3108,85.9891,20.5826,82.17,19.1556ZM65.3388,20.4147a.4658.4658,0,0,1,.4617-.4616h5.7922a.4658.4658,0,0,1,.4617.4616v1.2592a.4658.4658,0,0,1-.4617.4617H65.8005a.4658.4658,0,0,1-.4617-.4617ZM60.89,43.2055a.95.95,0,0,1-.9653.9654H56.189a.95.95,0,0,1-.9654-.9654V41.1909a.8974.8974,0,0,1,.3778-.7555,1.0048,1.0048,0,0,1,.8394-.1679l3.7355,1.0073a.9828.9828,0,0,1,.7135.9234Zm-5.0366-5.6662a.5737.5737,0,0,1-.5876-.5876V25.1576a.5737.5737,0,0,1,.5876-.5876H81.4141a.5737.5737,0,0,1,.5876.5876V36.9517a.5737.5737,0,0,1-.5876.5876Zm26.2744,5.6662a.95.95,0,0,1-.9653.9654H77.4268a.95.95,0,0,1-.9654-.9654V42.1982a.9828.9828,0,0,1,.7135-.9234L80.91,40.2675a1.005,1.005,0,0,1,.84.1679.8975.8975,0,0,1,.3777.7555Z"/><path d="M37.7256,52.3554a8.3307,8.3307,0,0,1-3.3175-15.9735l-1.057-3.8742-2.4822.955L27.38,42.0216c-.94,2.1307-2.2262,3.1789-3.94,3.1913H17.3924a8.35,8.35,0,1,1-3.2612-7.8579l3.07-3.07-.6141-2.1669H15.1064a1.19,1.19,0,0,1,0-2.3808h3.5715a1.1874,1.1874,0,0,1,.366,2.318l.3151,1.111L29.6538,31.38l3.0407-1.1737-.8318-2.7727L29.356,27.356a1.1912,1.1912,0,0,1,.035-2.3818h.0371l3.3646.1037c.0176.0009.0336.0057.0512.0067a.9988.9988,0,0,1,.1082.0152,1.132,1.132,0,0,1,.1251.0256c.0321.0086.0627.021.0939.0324.0409.0152.0818.0314.1208.05.03.0152.0578.0333.0858.05.0357.0219.0716.0447.1047.0694.029.0228.0554.0476.0818.0724.0285.0266.057.0532.0829.0827a1.0321,1.0321,0,0,1,.069.0885c.0235.0323.0464.0647.0668.0989.0179.03.0326.0627.0478.0951a1.1019,1.1019,0,0,1,.0512.1237c.0042.0133.0116.0237.0154.037l1.3971,4.659.0033.0162.005.0133,1.403,5.1431a8.33,8.33,0,1,1,1.02,16.5975ZM14.9865,45.2129H9.1543a1.1632,1.1632,0,0,1-1.0951-.7382,1.1919,1.1919,0,0,1,.25-1.2974l4.12-4.12a5.9486,5.9486,0,1,0,2.5575,6.1553Zm0-2.3809a5.9142,5.9142,0,0,0-.8717-2.0917L12.0236,42.832Zm4.6371,0-1.6781-5.9231-2.1293,2.13a8.2708,8.2708,0,0,1,1.5762,3.7933ZM28.0474,34.07l-8.0349,1.4021,2.0852,7.36H23.476c.6418,0,1.1181-.4766,1.7252-1.774Zm15.6309,9.9523A5.9591,5.9591,0,0,0,37.7256,38.07c-.13,0-.2567.0114-.384.019l1.5326,5.62a1.19,1.19,0,1,1-2.2971.6259l-1.5326-5.62a5.95,5.95,0,1,0,8.6338,5.3067Z"/></g></svg>