<svg xmlns="http://www.w3.org/2000/svg" viewBox="0 0 90 70"><g id="_90x70" data-name="90x70"><path d="M9.1366,19.6817H7.85a2.1288,2.1288,0,0,0-2.0907,2.0907v8.6844A2.1289,2.1289,0,0,0,7.85,32.5475H9.0562a2.1289,2.1289,0,0,0,2.0907-2.0907V21.7724A2.06,2.06,0,0,0,9.1366,19.6817Z"/><path d="M82.15,21.0487H80.9438a2.1288,2.1288,0,0,0-2.0907,2.0907v8.6844a2.1288,2.1288,0,0,0,2.0907,2.0906H82.15a2.1288,2.1288,0,0,0,2.0907-2.0906V23.1394A2.0761,2.0761,0,0,0,82.15,21.0487Z"/><path d="M70.812,4.6448C63.4946,1.9108,45,1.75,45,1.75s-18.575.1608-25.8924,2.8948-6.1916,8.0411-6.1916,8.0411V57.1533a6.1942,6.1942,0,0,0,6.1916,6.1916h.7237v2.8144A2.1289,2.1289,0,0,0,21.922,68.25h8.1215a2.1288,2.1288,0,0,0,2.0907-2.0907V63.3449H57.8658v2.8144A2.1288,2.1288,0,0,0,59.9565,68.25H68.078a2.1289,2.1289,0,0,0,2.0907-2.0907V63.3449h.7237a6.1942,6.1942,0,0,0,6.1916-6.1916V12.6055C77.0036,12.6055,78.1294,7.3788,70.812,4.6448ZM38.5671,7.0571a.8924.8924,0,0,1,.8845-.8845H50.5484a.8924.8924,0,0,1,.8845.8845V9.47a.8924.8924,0,0,1-.8845.8845H39.4516a.8924.8924,0,0,1-.8845-.8845ZM30.0435,50.72A1.82,1.82,0,0,1,28.1941,52.57H21.0375a1.82,1.82,0,0,1-1.85-1.8494v-3.86a1.72,1.72,0,0,1,.7237-1.4474,1.926,1.926,0,0,1,1.6083-.3216l7.1565,1.93a1.8826,1.8826,0,0,1,1.367,1.769ZM20.3942,39.8649a1.0993,1.0993,0,0,1-1.1258-1.1258V16.1436a1.0993,1.0993,0,0,1,1.1258-1.1258h48.97A1.0993,1.0993,0,0,1,70.49,16.1436V38.7391a1.0993,1.0993,0,0,1-1.1257,1.1258ZM70.7316,50.72a1.82,1.82,0,0,1-1.85,1.8494H61.7255A1.82,1.82,0,0,1,59.8761,50.72v-1.93a1.8826,1.8826,0,0,1,1.3669-1.769l7.1566-1.93a1.926,1.926,0,0,1,1.6083.3216,1.72,1.72,0,0,1,.7237,1.4474Z"/></g></svg>