<?xml version="1.0" encoding="UTF-8" standalone="no"?>
<svg
   xmlns:dc="http://purl.org/dc/elements/1.1/"
   xmlns:cc="http://creativecommons.org/ns#"
   xmlns:rdf="http://www.w3.org/1999/02/22-rdf-syntax-ns#"
   xmlns:svg="http://www.w3.org/2000/svg"
   xmlns="http://www.w3.org/2000/svg"
   xmlns:sodipodi="http://sodipodi.sourceforge.net/DTD/sodipodi-0.dtd"
   xmlns:inkscape="http://www.inkscape.org/namespaces/inkscape"
   viewBox="0 0 90 70"
   version="1.1"
   id="svg9"
   sodipodi:docname="bus_drt.svg"
   inkscape:version="0.92.3 (2405546, 2018-03-11)">
  <metadata
     id="metadata15">
    <rdf:RDF>
      <cc:Work
         rdf:about="">
        <dc:format>image/svg+xml</dc:format>
        <dc:type
           rdf:resource="http://purl.org/dc/dcmitype/StillImage" />
      </cc:Work>
    </rdf:RDF>
  </metadata>
  <defs
     id="defs13" />
  <sodipodi:namedview
     pagecolor="#ffffff"
     bordercolor="#666666"
     borderopacity="1"
     objecttolerance="10"
     gridtolerance="10"
     guidetolerance="10"
     inkscape:pageopacity="0"
     inkscape:pageshadow="2"
     inkscape:window-width="1201"
     inkscape:window-height="780"
     id="namedview11"
     showgrid="false"
     inkscape:zoom="4.76792"
     inkscape:cx="28.109768"
     inkscape:cy="34.430053"
     inkscape:window-x="0"
     inkscape:window-y="0"
     inkscape:window-maximized="0"
     inkscape:current-layer="svg9" />
  <g
     id="_90x70"
     data-name="90x70"
     transform="matrix(0.61213338,0,0,0.61213338,17.45354,13.575332)" />
  <path
     id="path17"
     d="m 15.336704,46.733885 c -0.146313,0.05453 -0.30106,0.08296 -0.4572,0.084 -0.593709,0.0041 -1.121305,-0.377829 -1.3029,-0.9431 -1.216897,-3.496238 -1.834748,-7.172846 -1.8275,-10.8748 -0.0023,-9.540425 4.092429,-18.622475 11.2434,-24.9378 h -2.9313 c -1.831514,-0.01555 -1.831514,-2.755147 0,-2.7707001 h 6.9271 c 0.41509,4.65e-5 0.808317,0.186092 1.0716,0.507 0.0257,0.031 0.0426,0.0675 0.0653,0.1007 l 0.013,0.0155 c 0.0086,0.0122 0.0133,0.0255 0.0213,0.0377 0.03101,0.047628 0.059,0.097159 0.0838,0.1483 0.164667,0.3346958 0.185863,0.7220351 0.0587,1.0727001 l -1.3408,6.7026 c -0.12908,0.647339 -0.697117,1.113588 -1.3572,1.114 -0.09163,0 -0.183035,-0.0093 -0.2728,-0.0277 -0.750314,-0.150238 -1.236762,-0.880291 -1.0865,-1.6306 l 0.6471,-3.2356 c -9.300063,8.180665 -12.740296,21.167091 -8.71,32.8791 0.251755,0.71899 -0.126434,1.506022 -0.8451,1.7587 z m 3.0064,3.0618 c -0.383578,-0.645641 -1.206153,-0.876929 -1.87,-0.5258 -0.327784,0.171887 -0.569018,0.472705 -0.6656,0.83 -0.09939,0.353895 -0.05471,0.732743 0.1243,1.0538 0.241051,0.439457 0.704195,0.710796 1.2054,0.7062 0.23663,7.52e-4 0.469871,-0.05623 0.6795,-0.166 0.662416,-0.377224 0.902239,-1.214472 0.54,-1.8852 z m 37.74,15.6835 h -11.084 c -9.195266,0.01635 -17.902323,-4.136243 -23.677,-11.2921 -0.496419,-0.57051 -1.349315,-0.660435 -1.9538,-0.206 -0.290221,0.230405 -0.471095,0.571493 -0.499,0.941 -0.03753,0.361809 0.06671,0.724073 0.2908,1.0106 6.301167,7.802005 15.796552,12.3308 25.8253,12.3173 h 11.0974 c 1.847199,0 1.847199,-2.7708 0,-2.7708 z m 13.8531,-5.5414 h -2.9426 C 77.364302,50.790473 80.991059,36.179412 76.101674,23.244243 71.212288,10.309074 58.827505,1.7502399 44.999104,1.7499849 h -11.0834 c -1.847199,0 -1.847199,2.7708 0,2.7708 h 11.0834 c 12.630275,-9.081e-4 23.952425,7.7886261 28.466497,19.5846841 4.514072,11.796058 1.284617,25.154147 -8.119597,33.585316 l 0.3928,-1.5741 c 0.457849,-1.797643 -2.246103,-2.4727 -2.6869,-0.6708 l -1.3276,5.31 c -0.14522,0.368425 -0.13592,0.779814 0.0258,1.1413 0.0063,0.0133 0.0144,0.0255 0.0213,0.0387 0.02405,0.0508 0.05076,0.1003 0.08,0.1483 0.0094,0.0134 0.0222,0.0222 0.0322,0.0355 0.0127,0.0177 0.02,0.0387 0.0339,0.0553 0.262083,0.336883 0.665078,0.533822 1.0919,0.5336 h 6.9273 c 1.862893,0.01583 1.862893,-2.786527 0,-2.7707 z M 60.799929,16.418569 c -4.479225,-1.673573 -15.800387,-1.772004 -15.800387,-1.772004 0,0 -11.370377,0.09843 -15.849602,1.772004 -4.479225,1.673573 -3.790085,4.922226 -3.790085,4.922226 v 27.21998 a 3.7916766,3.7916766 0 0 0 3.790085,3.790085 h 0.443001 v 1.722788 a 1.3031708,1.3031708 0 0 0 1.279787,1.279787 h 4.971441 a 1.3031095,1.3031095 0 0 0 1.279787,-1.279787 V 52.35086 h 15.751172 v 1.722788 a 1.3031095,1.3031095 0 0 0 1.279787,1.279787 h 4.971441 a 1.3031708,1.3031708 0 0 0 1.279788,-1.279787 V 52.35086 h 0.443 a 3.7916766,3.7916766 0 0 0 3.790085,-3.790085 V 21.291579 c -0.04922,0 0.639925,-3.199437 -3.8393,-4.87301 z m -19.73818,1.476649 a 0.54626783,0.54626783 0 0 1 0.541432,-0.541431 h 6.792722 a 0.54626783,0.54626783 0 0 1 0.541432,0.541431 v 1.477017 a 0.54626783,0.54626783 0 0 1 -0.541432,0.541432 h -6.792722 a 0.54626783,0.54626783 0 0 1 -0.541432,-0.541432 z m -5.21758,26.727519 a 1.1140828,1.1140828 0 0 1 -1.132079,1.132447 h -4.380794 a 1.1140828,1.1140828 0 0 1 -1.132447,-1.13208 v -2.362835 a 1.0528694,1.0528694 0 0 1 0.443001,-0.886001 1.1789689,1.1789689 0 0 1 0.984494,-0.196862 l 4.380733,1.181417 a 1.1524023,1.1524023 0 0 1 0.836786,1.082864 z m -5.906658,-6.644769 a 0.67291822,0.67291822 0 0 1 -0.68914,-0.68914 v -13.83146 a 0.67291822,0.67291822 0 0 1 0.68914,-0.689139 h 29.976171 a 0.67291822,0.67291822 0 0 1 0.68914,0.689139 v 13.83146 a 0.67291822,0.67291822 0 0 1 -0.689079,0.68914 z m 30.813202,6.644769 a 1.1140828,1.1140828 0 0 1 -1.132446,1.13208 h -4.380488 a 1.1140828,1.1140828 0 0 1 -1.13208,-1.13208 V 43.44132 a 1.1524023,1.1524023 0 0 1 0.836726,-1.082864 l 4.380793,-1.181418 a 1.1789689,1.1789689 0 0 1 0.984494,0.196862 1.0528694,1.0528694 0 0 1 0.443001,0.886002 z m 6.989584,-18.162793 h -0.738355 a 1.3031095,1.3031095 0 0 0 -1.279787,1.279787 v 5.316011 a 1.3031095,1.3031095 0 0 0 1.279787,1.279726 h 0.738355 a 1.3031095,1.3031095 0 0 0 1.279787,-1.279726 V 27.739731 A 1.2708501,1.2708501 0 0 0 67.740297,26.459944 Z M 23.046358,25.623158 H 22.258787 A 1.3031095,1.3031095 0 0 0 20.979,26.902945 v 5.316011 a 1.3031708,1.3031708 0 0 0 1.279787,1.279787 h 0.738355 a 1.3031708,1.3031708 0 0 0 1.279788,-1.279787 v -5.316011 a 1.2609948,1.2609948 0 0 0 -1.230572,-1.279787 z" />
</svg>
