<svg xmlns="http://www.w3.org/2000/svg" viewBox="0 0 90 70"><g id="_90x70" data-name="90x70"><path d="M14.5651,31.3426c.5141-1.1246.9961-2.2814,1.6387-3.5666.3534-.61.739-1.1567,1.4459-1.221H28.4779c.7069.0643,1.0924.6105,1.4459,1.221.6426,1.2852,1.1246,2.442,1.6387,3.5666Zm5.0767,4.6268h6.8118a.7553.7553,0,0,1,0,1.51H19.6418a.7553.7553,0,0,1,0-1.51ZM17.65,24.82c-1.1567,0-1.8636.4177-2.8276,1.7673L13.2156,30.218h-2.442c-.3856,0-1.0924,1.9921,1.478,2.0564l-.8675,2.0885c.0321,2.6669.0321,5.3016.0321,7.9364a1.0011,1.0011,0,0,0,.9961.996h3.3416a.9739.9739,0,0,0,.964-.996V40.1144h12.66v2.1849a1.0011,1.0011,0,0,0,.9961.996h3.3416a.9739.9739,0,0,0,.964-.996c0-2.6348.0321-5.27.0321-7.9364l-.8675-2.0885c2.6026-.0643,1.8636-2.0564,1.51-2.0564H32.912l-1.6066-3.6308c-.9639-1.35-1.6708-1.7673-2.8275-1.7673Zm13.4308,9.7358a1.6112,1.6112,0,0,0-1.6066,1.6065,1.6325,1.6325,0,0,0,1.6066,1.6066,1.6112,1.6112,0,0,0,1.6065-1.6066A1.5909,1.5909,0,0,0,31.0805,34.5557Zm-16.0334,0a1.6112,1.6112,0,0,1,1.6065,1.6065,1.6325,1.6325,0,0,1-1.6065,1.6066,1.6112,1.6112,0,0,1-1.6066-1.6066A1.591,1.591,0,0,1,15.0471,34.5557Z" fill-rule="evenodd"/><path d="M6.7423,41.4533a.7348.7348,0,0,1-.2515.0462.7471.7471,0,0,1-.7165-.5186A18.0867,18.0867,0,0,1,4.769,35a18.2918,18.2918,0,0,1,6.1837-13.7151H9.3406a.7619.7619,0,0,1,0-1.5238h3.81a.7628.7628,0,0,1,.5894.2788c.0141.0171.0234.0371.0359.0554l.0071.0085.0117.0208a.7251.7251,0,0,1,.0461.0815.7536.7536,0,0,1,.0323.59l-.7374,3.6862a.7616.7616,0,0,1-.7464.6125.75.75,0,0,1-.15-.0152.762.762,0,0,1-.5975-.8968l.3559-1.7795a16.8015,16.8015,0,0,0-4.79,18.0826A.7593.7593,0,0,1,6.7423,41.4533Zm1.6534,1.6839a.7749.7749,0,0,0-1.0284-.2891.7309.7309,0,0,0-.366.4566.7651.7651,0,0,0,.0683.58.7484.7484,0,0,0,.663.3885.8.8,0,0,0,.3737-.0913.7715.7715,0,0,0,.2968-1.0369Zm20.7558,8.6255H23.0557a16.6946,16.6946,0,0,1-13.0216-6.21A.7929.7929,0,0,0,8.96,45.4391a.7312.7312,0,0,0-.2744.5175.7728.7728,0,0,0,.16.5558,18.2252,18.2252,0,0,0,14.2032,6.7742h6.1033a.762.762,0,0,0,0-1.5239Zm7.6193-3.0476H35.1521A18.2871,18.2871,0,0,0,23.0557,16.7134H16.96a.762.762,0,1,0,0,1.5239h6.0955a16.7617,16.7617,0,0,1,11.19,29.2419l.216-.8657a.7615.7615,0,1,0-1.4777-.3689l-.73,2.92a.8108.8108,0,0,0,.0141.6277l.0118.0213a.8449.8449,0,0,0,.0441.0815c.0051.0074.0122.0122.0177.02.0069.01.0112.0213.0186.0305a.76.76,0,0,0,.6005.2934h3.81a.7619.7619,0,1,0,0-1.5238Z"/><path d="M46.0292,27.0043h-.6715a1.1112,1.1112,0,0,0-1.0913,1.0913v4.533A1.1112,1.1112,0,0,0,45.3577,33.72h.63a1.1112,1.1112,0,0,0,1.0912-1.0913v-4.533A1.0753,1.0753,0,0,0,46.0292,27.0043Z"/><path d="M84.14,27.7179h-.63a1.1112,1.1112,0,0,0-1.0913,1.0912v4.533A1.1112,1.1112,0,0,0,83.51,34.4334h.63a1.1112,1.1112,0,0,0,1.0912-1.0913v-4.533A1.0836,1.0836,0,0,0,84.14,27.7179Z"/><path d="M78.2217,19.1556c-3.8194-1.4271-13.473-1.511-13.473-1.511s-9.6955.0839-13.5149,1.511-3.2319,4.1972-3.2319,4.1972V46.5633a3.2332,3.2332,0,0,0,3.2319,3.2318h.3777v1.469a1.1112,1.1112,0,0,0,1.0913,1.0913h4.2391a1.1112,1.1112,0,0,0,1.0913-1.0913v-1.469h13.431v1.469a1.1112,1.1112,0,0,0,1.0913,1.0913h4.2392a1.1112,1.1112,0,0,0,1.0912-1.0913v-1.469h.3778a3.2331,3.2331,0,0,0,3.2318-3.2318V23.3108C81.4536,23.3108,82.0412,20.5826,78.2217,19.1556ZM61.391,20.4147a.4657.4657,0,0,1,.4617-.4616h5.7921a.4658.4658,0,0,1,.4617.4616v1.2592a.4658.4658,0,0,1-.4617.4617H61.8527a.4658.4658,0,0,1-.4617-.4617ZM56.9419,43.2055a.95.95,0,0,1-.9653.9654H52.2411a.95.95,0,0,1-.9654-.9654V41.1909a.8974.8974,0,0,1,.3778-.7555,1.0048,1.0048,0,0,1,.8394-.1679l3.7355,1.0073a.9828.9828,0,0,1,.7135.9234Zm-5.0366-5.6662a.5737.5737,0,0,1-.5876-.5876V25.1576a.5737.5737,0,0,1,.5876-.5876H77.4662a.5737.5737,0,0,1,.5876.5876V36.9517a.5737.5737,0,0,1-.5876.5876ZM78.18,43.2055a.95.95,0,0,1-.9654.9654H73.4789a.95.95,0,0,1-.9654-.9654V42.1982a.9827.9827,0,0,1,.7136-.9234l3.7355-1.0073a1.0048,1.0048,0,0,1,.8394.1679.8976.8976,0,0,1,.3778.7555Z"/></g></svg>