<svg xmlns="http://www.w3.org/2000/svg" viewBox="0 0 90 70"><g id="_90x70" data-name="90x70"><path d="M29.5616,28.35c.9348-2.0448,1.8112-4.1481,2.98-6.485.6427-1.11,1.3438-2.1032,2.6291-2.22H54.8589c1.2853.1169,1.9864,1.11,2.629,2.22,1.1685,2.3369,2.0448,4.44,2.98,6.485Zm9.2309,8.4129H51.1782a1.3733,1.3733,0,0,1,0,2.7459H38.7925a1.3733,1.3733,0,0,1,0-2.7459ZM35.17,16.49c-2.1033,0-3.3886.76-5.1413,3.2132L27.1079,26.305h-4.44c-.7011,0-1.9864,3.6222,2.6875,3.739l-1.5775,3.7975c.0585,4.8492.0585,9.64.0585,14.4306a1.82,1.82,0,0,0,1.8111,1.8111h6.076a1.7709,1.7709,0,0,0,1.7527-1.8111V44.2993H56.4947v3.9728a1.82,1.82,0,0,0,1.8111,1.8111h6.076a1.7709,1.7709,0,0,0,1.7527-1.8111c0-4.7907.0585-9.5814.0585-14.4306L64.6155,30.044c4.7323-.1168,3.3886-3.739,2.7459-3.739h-4.44L60,19.7031c-1.7527-2.4537-3.038-3.2132-5.1412-3.2132ZM59.5911,34.1921A2.93,2.93,0,0,0,56.67,37.1132a2.9683,2.9683,0,0,0,2.9211,2.9212,2.93,2.93,0,0,0,2.9212-2.9212A2.8928,2.8928,0,0,0,59.5911,34.1921Zm-29.1531,0a2.93,2.93,0,0,1,2.9211,2.9211,2.9683,2.9683,0,0,1-2.9211,2.9212,2.93,2.93,0,0,1-2.9212-2.9212A2.8928,2.8928,0,0,1,30.438,34.1921Z" fill-rule="evenodd"/><path d="M15.3376,46.7339a1.3346,1.3346,0,0,1-.4572.084,1.3587,1.3587,0,0,1-1.3029-.9431A32.8867,32.8867,0,0,1,11.75,35,33.26,33.26,0,0,1,22.9934,10.0622H20.0621a1.3854,1.3854,0,0,1,0-2.7707h6.9271a1.3863,1.3863,0,0,1,1.0716.507c.0257.031.0426.0675.0653.1007l.013.0155c.0086.0122.0133.0255.0213.0377a1.3561,1.3561,0,0,1,.0838.1483,1.3711,1.3711,0,0,1,.0587,1.0727L26.9621,15.876A1.3848,1.3848,0,0,1,25.6049,16.99a1.3572,1.3572,0,0,1-.2728-.0277,1.3855,1.3855,0,0,1-1.0865-1.6306l.6471-3.2356a30.55,30.55,0,0,0-8.71,32.8791A1.3806,1.3806,0,0,1,15.3376,46.7339Zm3.0064,3.0618a1.4089,1.4089,0,0,0-1.87-.5258,1.3287,1.3287,0,0,0-.6656.83,1.3914,1.3914,0,0,0,.1243,1.0538,1.3606,1.3606,0,0,0,1.2054.7062,1.4548,1.4548,0,0,0,.6795-.166,1.4025,1.4025,0,0,0,.54-1.8852Zm37.74,15.6835H45A30.3556,30.3556,0,0,1,21.323,54.1871a1.4416,1.4416,0,0,0-1.9538-.206,1.3293,1.3293,0,0,0-.499.941,1.4051,1.4051,0,0,0,.2908,1.0106A33.1387,33.1387,0,0,0,44.9863,68.25H56.0837a1.3854,1.3854,0,0,0,0-2.7708Zm13.8539-5.5414H66.9945A33.251,33.251,0,0,0,45,1.75H33.9166a1.3854,1.3854,0,1,0,0,2.7708H45a30.4773,30.4773,0,0,1,20.3469,53.17l.3928-1.5741a1.3847,1.3847,0,1,0-2.6869-.6708l-1.3276,5.31a1.4725,1.4725,0,0,0,.0258,1.1413c.0063.0133.0144.0255.0213.0387a1.6066,1.6066,0,0,0,.08.1483c.0094.0134.0222.0222.0322.0355.0127.0177.02.0387.0339.0553a1.3825,1.3825,0,0,0,1.0919.5336h6.9273a1.3854,1.3854,0,1,0,0-2.7707Z"/></g></svg>