<svg xmlns="http://www.w3.org/2000/svg" viewBox="0 0 90 70"><g id="_90x70" data-name="90x70"><path d="M11.3571,43.0689a5.0374,5.0374,0,0,1,4.8884,4.005H26.4936l7.7156-7.3032-5.2419-20.85H25.8458a1.0014,1.0014,0,1,1,0-2.0025H29.733a.9521.9521,0,0,1,.9423.8245l6.42,25.3258a5.0556,5.0556,0,0,1,5.2419,5.0063,5.0063,5.0063,0,1,1-7.1855-4.4762L34.7392,41.95l-7.1265,6.832a.9754.9754,0,0,1-.7068.2945h-10.66a4.9988,4.9988,0,1,1-4.8884-6.0075Zm26.2092,2.0025.7068,2.7682a1,1,0,1,1-1.9436.4711l-.7068-2.7681a3.1563,3.1563,0,0,0-1.3546,2.5326,3.0333,3.0333,0,1,0,3.2982-3.0038Zm-26.2092,4.005a1.0017,1.0017,0,0,1,0-2.0025h2.8271a3.0009,3.0009,0,0,0-5.8309,1.0013,3.0294,3.0294,0,0,0,3.0038,3.0626,2.97,2.97,0,0,0,2.8271-2.0614Z"/><path d="M44.4473,27.0043h-.6715a1.1112,1.1112,0,0,0-1.0913,1.0913v4.533A1.1112,1.1112,0,0,0,43.7758,33.72h.63a1.1112,1.1112,0,0,0,1.0912-1.0913v-4.533A1.0752,1.0752,0,0,0,44.4473,27.0043Z"/><path d="M82.5579,27.7179h-.63a1.1112,1.1112,0,0,0-1.0913,1.0912v4.533a1.1112,1.1112,0,0,0,1.0913,1.0913h.63a1.1112,1.1112,0,0,0,1.0913-1.0913v-4.533A1.0837,1.0837,0,0,0,82.5579,27.7179Z"/><path d="M76.64,19.1556c-3.8194-1.4271-13.473-1.511-13.473-1.511s-9.6955.0839-13.5149,1.511S46.42,23.3528,46.42,23.3528V46.5633a3.2332,3.2332,0,0,0,3.2319,3.2318H50.03v1.469a1.1112,1.1112,0,0,0,1.0913,1.0913H55.36a1.1112,1.1112,0,0,0,1.0912-1.0913v-1.469H69.8824v1.469a1.1112,1.1112,0,0,0,1.0912,1.0913h4.2392a1.1112,1.1112,0,0,0,1.0913-1.0913v-1.469h.3777a3.2332,3.2332,0,0,0,3.2319-3.2318V23.3108C79.8717,23.3108,80.4593,20.5826,76.64,19.1556ZM59.8091,20.4147a.4657.4657,0,0,1,.4617-.4616h5.7921a.4658.4658,0,0,1,.4617.4616v1.2592a.4658.4658,0,0,1-.4617.4617H60.2708a.4658.4658,0,0,1-.4617-.4617ZM55.36,43.2055a.95.95,0,0,1-.9654.9654H50.6592a.95.95,0,0,1-.9654-.9654V41.1909a.8976.8976,0,0,1,.3778-.7555,1.0048,1.0048,0,0,1,.8394-.1679l3.7355,1.0073a.9827.9827,0,0,1,.7136.9234Zm-5.0367-5.6662a.5737.5737,0,0,1-.5876-.5876V25.1576a.5737.5737,0,0,1,.5876-.5876h25.561a.5738.5738,0,0,1,.5876.5876V36.9517a.5738.5738,0,0,1-.5876.5876Zm26.2745,5.6662a.95.95,0,0,1-.9654.9654H71.897a.95.95,0,0,1-.9653-.9654V42.1982a.9828.9828,0,0,1,.7135-.9234l3.7355-1.0073a1.0048,1.0048,0,0,1,.8394.1679.8974.8974,0,0,1,.3778.7555Z"/></g></svg>