<svg xmlns="http://www.w3.org/2000/svg" viewBox="0 0 90 70"><g id="_90x70" data-name="90x70"><path d="M25.33,16.7081a15.24,15.24,0,0,1,5.8412.9992,10.9337,10.9337,0,0,1,3.92,2.6388,10.1512,10.1512,0,0,1,2.2032,3.74,13.9743,13.9743,0,0,1,0,8.6848,10.1042,10.1042,0,0,1-2.2032,3.7659,10.926,10.926,0,0,1-3.92,2.6388,15.24,15.24,0,0,1-5.8412.9992h-8.454V53.2919H8.8312V16.7081ZM23.1264,33.9239a16.8217,16.8217,0,0,0,2.6645-.2048,6.1906,6.1906,0,0,0,2.2545-.7941A4.3281,4.3281,0,0,0,29.6081,31.26a5.8618,5.8618,0,0,0,.5891-2.8181,5.8643,5.8643,0,0,0-.5891-2.8183,4.3346,4.3346,0,0,0-1.5627-1.665,6.22,6.22,0,0,0-2.2545-.7943,16.9286,16.9286,0,0,0-2.6645-.2048H16.8756V33.9239Z"/><path d="M43.9682,27.0043h-.6715a1.1112,1.1112,0,0,0-1.0913,1.0913v4.533A1.1112,1.1112,0,0,0,43.2967,33.72h.63a1.1112,1.1112,0,0,0,1.0913-1.0913v-4.533A1.0753,1.0753,0,0,0,43.9682,27.0043Z"/><path d="M82.0788,27.7179h-.63a1.1112,1.1112,0,0,0-1.0913,1.0912v4.533a1.1112,1.1112,0,0,0,1.0913,1.0913h.63A1.1112,1.1112,0,0,0,83.17,33.3421v-4.533A1.0836,1.0836,0,0,0,82.0788,27.7179Z"/><path d="M76.1607,19.1556c-3.8194-1.4271-13.473-1.511-13.473-1.511s-9.6955.0839-13.515,1.511-3.2318,4.1972-3.2318,4.1972V46.5633a3.2331,3.2331,0,0,0,3.2318,3.2318h.3778v1.469a1.1112,1.1112,0,0,0,1.0913,1.0913h4.2391a1.1112,1.1112,0,0,0,1.0913-1.0913v-1.469h13.431v1.469a1.1112,1.1112,0,0,0,1.0913,1.0913h4.2392a1.1112,1.1112,0,0,0,1.0912-1.0913v-1.469h.3778a3.2331,3.2331,0,0,0,3.2318-3.2318V23.3108C79.3926,23.3108,79.98,20.5826,76.1607,19.1556ZM59.33,20.4147a.4657.4657,0,0,1,.4616-.4616h5.7922a.4658.4658,0,0,1,.4617.4616v1.2592a.4658.4658,0,0,1-.4617.4617H59.7916a.4658.4658,0,0,1-.4616-.4617ZM54.8809,43.2055a.95.95,0,0,1-.9653.9654H50.18a.95.95,0,0,1-.9654-.9654V41.1909a.8974.8974,0,0,1,.3778-.7555,1.0048,1.0048,0,0,1,.8394-.1679l3.7355,1.0073a.9828.9828,0,0,1,.7135.9234Zm-5.0366-5.6662a.5737.5737,0,0,1-.5876-.5876V25.1576a.5737.5737,0,0,1,.5876-.5876H75.4052a.5737.5737,0,0,1,.5876.5876V36.9517a.5737.5737,0,0,1-.5876.5876Zm26.2744,5.6662a.95.95,0,0,1-.9653.9654H71.4179a.95.95,0,0,1-.9654-.9654V42.1982a.9828.9828,0,0,1,.7135-.9234l3.7356-1.0073a1.0048,1.0048,0,0,1,.8394.1679.8975.8975,0,0,1,.3777.7555Z"/></g></svg>