<svg xmlns="http://www.w3.org/2000/svg" viewBox="0 0 90 70"><g id="_90x70" data-name="90x70"><path d="M48.4924,1.75A27.7028,27.7028,0,0,1,59.11,3.5662a19.877,19.877,0,0,1,7.1251,4.7967A18.4533,18.4533,0,0,1,70.24,15.1618a25.4041,25.4041,0,0,1,0,15.7868,18.366,18.366,0,0,1-4.0049,6.8454A19.86,19.86,0,0,1,59.11,42.5907a27.7028,27.7028,0,0,1-10.6177,1.8162H33.1251V68.25H18.5025V1.75ZM44.4875,33.0439a30.559,30.559,0,0,0,4.8433-.3723,11.2483,11.2483,0,0,0,4.0981-1.4434,7.8691,7.8691,0,0,0,2.8406-3.027,10.6524,10.6524,0,0,0,1.071-5.1224,10.6574,10.6574,0,0,0-1.071-5.123,7.8789,7.8789,0,0,0-2.8406-3.0265,11.3006,11.3006,0,0,0-4.0981-1.4439,30.76,30.76,0,0,0-4.8433-.3724H33.1251V33.0439Z"/></g></svg>